<mxfile host="app.diagrams.net" modified="2023-11-20T20:48:56.231Z" agent="Mozilla/5.0 (Macintosh; Intel Mac OS X 10.15; rv:109.0) Gecko/20100101 Firefox/119.0" etag="ZRWdsxtbVRfNzVhjxrXw" version="22.1.3" type="device">
  <diagram name="Page-1" id="-gCNOhiUEN51JENHw5cy">
    <mxGraphModel dx="683" dy="336" grid="1" gridSize="10" guides="1" tooltips="1" connect="1" arrows="1" fold="1" page="1" pageScale="1" pageWidth="260" pageHeight="240" math="0" shadow="0">
      <root>
        <mxCell id="0" />
        <mxCell id="1" parent="0" />
        <mxCell id="6efMwRpLNqJ-Qm93tEll-1" value="&lt;div&gt;&lt;font style=&quot;font-size: 10px;&quot;&gt;Infographic Generator&lt;br&gt;&lt;/font&gt;&lt;/div&gt;&lt;div&gt;&lt;font style=&quot;font-size: 10px;&quot;&gt;Class Library / DLL&lt;br&gt;&lt;/font&gt;&lt;/div&gt;" style="rounded=0;whiteSpace=wrap;html=1;" vertex="1" parent="1">
          <mxGeometry x="200" y="90" width="120" height="40" as="geometry" />
        </mxCell>
        <mxCell id="6efMwRpLNqJ-Qm93tEll-2" value="&lt;div&gt;&lt;font style=&quot;font-size: 10px;&quot;&gt;ColorResolver&lt;/font&gt;&lt;/div&gt;&lt;div&gt;&lt;font style=&quot;font-size: 10px;&quot;&gt;Class Library / DLL&lt;br&gt;&lt;/font&gt;&lt;/div&gt;" style="rounded=0;whiteSpace=wrap;html=1;" vertex="1" parent="1">
          <mxGeometry x="40" y="40" width="120" height="40" as="geometry" />
        </mxCell>
        <mxCell id="6efMwRpLNqJ-Qm93tEll-3" value="&lt;div&gt;&lt;font style=&quot;font-size: 10px;&quot;&gt;CreatureImageResolver&lt;/font&gt;&lt;/div&gt;&lt;div&gt;&lt;font style=&quot;font-size: 10px;&quot;&gt;Class Library / DLL&lt;br&gt;&lt;/font&gt;&lt;/div&gt;" style="rounded=0;whiteSpace=wrap;html=1;" vertex="1" parent="1">
          <mxGeometry x="40" y="90" width="120" height="40" as="geometry" />
        </mxCell>
        <mxCell id="6efMwRpLNqJ-Qm93tEll-4" value="&lt;div&gt;&lt;font style=&quot;font-size: 10px;&quot;&gt;Localization&lt;/font&gt;&lt;/div&gt;&lt;div&gt;&lt;font style=&quot;font-size: 10px;&quot;&gt;Class Library / DLL&lt;br&gt;&lt;/font&gt;&lt;/div&gt;" style="rounded=0;whiteSpace=wrap;html=1;" vertex="1" parent="1">
          <mxGeometry x="40" y="140" width="120" height="40" as="geometry" />
        </mxCell>
        <mxCell id="6efMwRpLNqJ-Qm93tEll-5" value="&lt;div&gt;&lt;font style=&quot;font-size: 10px;&quot;&gt;Infographic Web Service&lt;br&gt;&lt;/font&gt;&lt;/div&gt;&lt;div&gt;&lt;font style=&quot;font-size: 10px;&quot;&gt;ASP.NET MVC&lt;br&gt;&lt;/font&gt;&lt;/div&gt;" style="rounded=0;whiteSpace=wrap;html=1;" vertex="1" parent="1">
          <mxGeometry x="360" y="90" width="120" height="40" as="geometry" />
        </mxCell>
        <mxCell id="6efMwRpLNqJ-Qm93tEll-6" value="" style="endArrow=classic;html=1;rounded=0;" edge="1" parent="1">
          <mxGeometry width="50" height="50" relative="1" as="geometry">
            <mxPoint x="160" y="109.75999999999999" as="sourcePoint" />
            <mxPoint x="200" y="109.75999999999999" as="targetPoint" />
          </mxGeometry>
        </mxCell>
        <mxCell id="6efMwRpLNqJ-Qm93tEll-7" value="" style="endArrow=classic;html=1;rounded=0;" edge="1" parent="1">
          <mxGeometry width="50" height="50" relative="1" as="geometry">
            <mxPoint x="160" y="60" as="sourcePoint" />
            <mxPoint x="200" y="89.52" as="targetPoint" />
          </mxGeometry>
        </mxCell>
        <mxCell id="6efMwRpLNqJ-Qm93tEll-8" value="" style="endArrow=classic;html=1;rounded=0;" edge="1" parent="1">
          <mxGeometry width="50" height="50" relative="1" as="geometry">
            <mxPoint x="160" y="160" as="sourcePoint" />
            <mxPoint x="200" y="130" as="targetPoint" />
          </mxGeometry>
        </mxCell>
        <mxCell id="6efMwRpLNqJ-Qm93tEll-9" value="" style="endArrow=classic;html=1;rounded=0;" edge="1" parent="1">
          <mxGeometry width="50" height="50" relative="1" as="geometry">
            <mxPoint x="320" y="109.75999999999999" as="sourcePoint" />
            <mxPoint x="360" y="109.75999999999999" as="targetPoint" />
          </mxGeometry>
        </mxCell>
        <mxCell id="6efMwRpLNqJ-Qm93tEll-10" value="Browser / cURL / etc." style="rounded=0;whiteSpace=wrap;html=1;" vertex="1" parent="1">
          <mxGeometry x="360" y="160" width="120" height="40" as="geometry" />
        </mxCell>
        <mxCell id="6efMwRpLNqJ-Qm93tEll-11" value="" style="endArrow=classic;html=1;rounded=0;exitX=0.336;exitY=-0.007;exitDx=0;exitDy=0;exitPerimeter=0;" edge="1" parent="1" source="6efMwRpLNqJ-Qm93tEll-10">
          <mxGeometry width="50" height="50" relative="1" as="geometry">
            <mxPoint x="400" y="180" as="sourcePoint" />
            <mxPoint x="400" y="130" as="targetPoint" />
          </mxGeometry>
        </mxCell>
        <mxCell id="6efMwRpLNqJ-Qm93tEll-12" value="" style="endArrow=classic;html=1;rounded=0;exitX=0.336;exitY=-0.007;exitDx=0;exitDy=0;exitPerimeter=0;" edge="1" parent="1">
          <mxGeometry width="50" height="50" relative="1" as="geometry">
            <mxPoint x="440" y="130" as="sourcePoint" />
            <mxPoint x="440" y="160" as="targetPoint" />
          </mxGeometry>
        </mxCell>
      </root>
    </mxGraphModel>
  </diagram>
</mxfile>
